<svg xmlns="http://www.w3.org/2000/svg" viewBox="0 0 80.25 26.27"><defs><style>.cls-1{fill:#b4be35;}</style></defs><title>slim-logo</title><g id="Layer_2" data-name="Layer 2"><g id="Layer_1-2" data-name="Layer 1"><path class="cls-1" d="M0,.19H2.44V12a16.07,16.07,0,0,1,.78-1.78L8.07.19h2.41L4.37,12.36l6.33,13.73H8.1L3.18,15.21a14,14,0,0,1-.74-1.92v12.8H0Z"/><path class="cls-1" d="M20.09,26.09H17.91L15.1,8.7c-.22-1.26-.44-3.11-.59-4.55,0,1.44.07,3.37.07,4.55V26.09H12.47V.19H16.1L18.72,17.5c.15,1.07.26,2.37.37,3.63.07-1.26.19-2.55.33-3.63L22.05.19h3.66v25.9H23.31V8.7c0-1.18,0-2.85.07-4.18-.19,1.37-.33,3-.52,4.18Z"/><path class="cls-1" d="M35.37,21.91H30.64L30,26.09H27.86L31.49.19h3.37l3.59,25.9H36Zm-4.44-2.26h4.14l-.74-5.48C33.71,9.44,33.26,5.4,33,2.41c-.22,3-.63,7.07-1.3,11.77Z"/><path d="M47,19.2c0-2.44-.44-3.18-3.11-5.62-3.15-2.92-3.74-3.92-3.74-7.14v-2c0-3.4.85-4.4,4-4.4h1.33c3.15,0,4,1,4,4.4v4.4H47.18V4.88c0-2-.15-2.63-1.92-2.63h-.7c-1.78,0-1.92.63-1.92,2.59V6.4c0,2.41.44,3.18,3.11,5.62,3.15,2.89,3.74,3.92,3.74,7.14v2.7c0,3.4-.81,4.4-4,4.4H44.18c-3.15,0-4-1-4-4.4V16.73h2.29v4.66c0,2,.15,2.63,1.92,2.63h.7c1.78,0,1.92-.63,1.92-2.63Z"/><path d="M52.35.19H54.8V23.83h4.44v2.26H52.35Z"/><path d="M61.23.19h2.44v25.9H61.23Z"/><path d="M74.63,26.09H72.45L69.63,8.7c-.22-1.26-.44-3.11-.59-4.55,0,1.44.07,3.37.07,4.55V26.09H67V.19h3.63L73.26,17.5c.15,1.07.26,2.37.37,3.63.07-1.26.19-2.55.33-3.63L76.59.19h3.66v25.9h-2.4V8.7c0-1.18,0-2.85.07-4.18-.19,1.37-.33,3-.52,4.18Z"/></g></g></svg>